PathFileType	4	(X/Y/Z)	D:\TRACE\spotREDO_2-26-24\spot_justBody_Motion_2_7-v60.trc
DataRate	CameraRate	NumFrames	NumMarkers	Units	OrigDataRate	OrigDataStartFrame	OrigNumFrames
100.00	100.00	      24	9	mm	100.00	1751	      7000
Frame#	Time	front left toe			Front right toe			aft left toe			aft right toe			Arm			FL body			FR body			AL Body			AR Body			
		X1	Y1	Z1	X2	Y2	Z2	X3	Y3	Z3	X4	Y4	Z4	X5	Y5	Z5	X6	Y6	Z6	X7	Y7	Z7	X8	Y8	Z8	X9	Y9	Z9	

1751	17.500	-154.37033	45.64624	-219.42159	377.77878	34.60976	-47.83138	-224.82994	-5.59298	312.05362	264.25699	-1.18658	369.36972	141.87135	809.85736	-287.73788	55.27729	550.23608	-284.55923	207.70511	554.14636	-252.61670	-131.18787	553.14215	579.72375	7.42852	557.18628	610.45978	
1752	17.510	-154.69601	45.92922	-219.28879	377.58755	34.91548	-47.57643	-225.25304	-5.74622	311.99298	263.61255	-1.55288	369.40765	141.71585	810.41510	-288.08795	54.91819	550.80707	-285.45071	207.57590	555.05225	-253.79007	-131.46387	552.31207	578.78827	7.23111	556.59698	609.55530	
1753	17.520	-155.01057	46.24957	-219.12459	376.86832	34.76724	-47.64359	-225.39572	-5.89257	312.14850	263.09299	-1.77508	369.61298	141.04788	811.06720	-288.76633	54.63725	551.40814	-286.30167	207.28294	555.62097	-254.85539	-131.59457	551.58130	577.93329	6.95274	555.80054	608.78619	
1754	17.530	-155.86432	46.74318	-218.89032	376.24005	34.80301	-47.50517	-225.87901	-5.97535	312.35388	262.83734	-2.11075	369.79651	140.41794	811.63055	-289.39883	54.35241	551.91626	-287.40738	207.05141	555.99670	-255.68724	-131.88991	550.92590	576.84778	6.43630	555.13074	607.52759	
1755	17.540	-156.08269	46.71616	-218.86084	375.61050	34.92687	-47.31311	-226.46974	-6.10801	312.57925	262.29050	-2.66511	369.84933	140.13834	812.11011	-289.85101	54.32545	552.46234	-288.41562	206.85817	556.74542	-256.71487	-132.35028	550.03638	575.86603	6.14683	554.47302	606.64392	
1756	17.550	-156.09833	47.33097	-219.28902	375.31042	34.96448	-47.01055	-226.88261	-6.19301	313.14557	262.28967	-2.99067	370.28360	139.32469	812.74963	-291.03717	53.79077	553.00671	-289.66882	206.53610	557.27094	-257.92899	-132.80397	549.30505	574.63916	5.62020	553.58832	605.25818	
1757	17.560	-156.06456	47.63797	-219.60155	375.23828	34.76857	-46.13288	-227.81242	-6.18156	312.78925	262.74265	-3.89090	370.67276	139.15657	813.39331	-291.73581	53.34965	553.53149	-290.95798	206.02057	557.96747	-259.29770	-133.59076	548.06122	573.18323	4.74018	552.47058	603.91406	
1758	17.570	-156.91316	46.49479	-219.39030	374.86926	34.50749	-47.01269	-228.39513	-7.10684	312.58423	267.50101	1.45665	371.16782	138.08424	814.33167	-293.08099	52.67303	554.34344	-292.52084	205.19217	558.98407	-260.98300	-134.54060	546.85168	571.49896	4.02819	551.50122	602.64935	
1759	17.580	-158.22725	46.82751	-219.71687	374.20804	34.66125	-47.46791	-229.36859	-7.81745	312.64212	263.68341	7.68581	376.93149	136.65134	815.41003	-293.87976	52.11338	555.77246	-294.33212	204.08426	559.80432	-262.72751	-133.97647	545.44891	570.30927	3.68388	549.58069	600.62823	
1760	17.590	-159.10179	47.38859	-219.88503	372.73349	34.92810	-48.26610	-230.02170	-7.97716	312.77975	259.17413	16.15870	385.47620	136.50011	816.54218	-294.72885	50.20959	557.12134	-295.75211	202.74200	560.69495	-264.66849	-133.96013	544.01074	568.74646	4.29012	547.25909	599.13312	
1761	17.600	-159.52525	47.52948	-219.73119	373.63672	36.30132	-47.70555	-230.20508	-7.77033	312.82019	259.03564	27.08785	391.52405	136.14787	817.79504	-295.19647	49.14660	557.91394	-297.36282	201.85091	560.92499	-266.29547	-133.98000	543.18896	567.47327	5.59477	545.47852	597.75195	
1762	17.610	-160.28909	46.70863	-219.49484	371.88058	35.41993	-48.00029	-230.61227	-7.44477	312.76944	260.24017	40.22394	390.84064	135.42105	818.47522	-296.05219	48.55310	557.98694	-298.67932	201.26775	561.01764	-267.53888	-134.51385	542.81323	566.21222	4.10199	545.48743	596.67566	
1763	17.620	-161.22697	46.26015	-219.64047	371.64813	35.22462	-47.89723	-231.26155	-7.37506	312.89905	267.33902	55.33463	386.97400	134.54297	818.18402	-297.39343	48.18256	557.79944	-299.66595	200.74744	560.84656	-268.79358	-135.83566	542.36334	564.61945	2.56576	545.57129	595.04041	
1764	17.630	-161.96048	46.40015	-219.75247	370.78317	35.03603	-47.95673	-232.09698	-7.62248	312.71921	267.79160	67.90064	381.09476	134.03481	817.15131	-298.61374	47.88868	558.19086	-300.86905	200.62390	561.10931	-269.58649	-136.42909	541.70813	563.68591	1.70153	544.98138	594.03833	
1765	17.640	-162.42244	46.49690	-219.85960	369.86993	34.88158	-48.11850	-232.57666	-7.76036	312.81549	271.00772	79.97152	380.07092	133.67026	817.06628	-299.62656	47.60901	558.38562	-301.86581	200.02705	561.46545	-270.69473	-136.84346	540.71088	562.62500	1.79955	543.67035	593.09351	
1766	17.650	-163.01591	46.80610	-220.00432	369.37381	34.84452	-48.15480	-233.39371	-7.93508	312.81213	267.02383	87.74895	381.40399	133.21010	817.83398	-300.25101	47.17036	558.71680	-302.82443	199.73036	561.70728	-271.59650	-137.11748	539.83850	561.75146	1.42208	542.79877	592.13281	
1767	17.660	-164.15718	46.79734	-219.85712	369.30118	35.08523	-48.06076	-234.13155	-7.76445	312.88077	266.69043	96.32723	386.26437	133.15398	818.60333	-300.54526	46.44926	559.07593	-303.78497	198.94080	562.07898	-272.88272	-136.83258	538.90887	560.77887	1.78584	541.74921	590.98682	
1768	17.670	-164.67801	46.65661	-219.80681	368.43936	35.15014	-48.12323	-234.61098	-7.69612	312.83411	265.43356	103.43397	389.94812	133.00223	818.84601	-300.73270	45.85997	559.46545	-304.79950	198.71198	562.37695	-273.72632	-136.94385	538.26843	560.04523	1.93920	540.94299	590.32330	
1769	17.680	-165.38330	46.48533	-219.78822	366.96762	34.83862	-48.54961	-235.11131	-7.61395	312.70239	267.77805	112.08701	392.68359	132.99490	819.19049	-301.15515	45.40881	559.67297	-305.65268	198.12830	562.42212	-274.64828	-137.24802	537.51880	559.05225	1.78773	540.08508	589.40613	
1770	17.690	-166.24910	46.50624	-219.87033	366.43826	34.78682	-48.62724	-236.11739	-7.24790	312.55032	270.71088	119.31927	394.03708	132.39211	819.16058	-301.85040	45.32186	559.56915	-306.16748	198.01335	562.38080	-275.20477	-137.66682	536.98230	558.52570	0.31458	539.80322	588.64783	
1771	17.700	-166.59210	46.37532	-220.13379	366.20706	34.70871	-48.33394	-236.98865	-7.17456	312.46075	272.99060	124.74973	394.31100	131.82651	818.80170	-302.52463	45.24535	559.64148	-306.79654	197.94829	562.45770	-275.78214	-138.09697	536.31659	557.69952	0.33663	539.28058	588.13654	
1772	17.710	-167.22791	46.49810	-220.33546	365.78510	34.77787	-48.15292	-237.52191	-7.21195	312.45612	275.37488	126.66622	396.07178	131.47572	818.84033	-302.86490	44.97931	559.72479	-307.50864	197.76968	562.59259	-276.27170	-138.43915	535.66058	557.07275	0.00974	538.60986	587.38232	
1773	17.720	-168.23311	46.51225	-220.54922	364.45535	34.48431	-48.44173	-238.41750	-6.99756	312.43692	275.01035	125.52644	397.93811	131.03012	819.14081	-303.27582	44.62381	559.97302	-307.77707	197.38460	562.78345	-276.86618	-138.52339	535.10052	556.69244	-0.11651	537.80988	586.86487	
1774	17.730	-168.89926	46.13666	-220.65132	363.66690	34.33337	-48.44935	-239.13051	-6.75067	312.42270	275.66406	123.34299	400.89767	131.08522	819.58185	-303.43042	44.53130	560.32050	-308.24521	197.12137	562.95886	-277.25296	-138.54153	534.52936	556.35889	-0.08728	537.34778	586.54480	
